<?xml version="1.0" encoding="UTF-8"?>
<svg xmlns="http://www.w3.org/2000/svg" version="1.1" viewBox="0 0 512 512">
  <defs>
    <style>
      .cls-1 {
        fill: #663824;
      }
    </style>
  </defs>
  <!-- Generator: Adobe Illustrator 28.6.0, SVG Export Plug-In . SVG Version: 1.2.0 Build 709)  -->
  <g>
    <g id="Layer_1">
      <path class="cls-1" d="M436,80H76c-24.3,0-44,19.7-44,44v264c0,24.3,19.7,44,44,44h360c24.3,0,44-19.7,44-44V124c0-24.3-19.7-44-44-44ZM112,388c0,6.6-5.4,12-12,12h-24c-6.6,0-12-5.4-12-12v-24c0-6.6,5.4-12,12-12h24c6.6,0,12,5.4,12,12v24ZM112,308c0,6.6-5.4,12-12,12h-24c-6.6,0-12-5.4-12-12v-24c0-6.6,5.4-12,12-12h24c6.6,0,12,5.4,12,12v24ZM112,228c0,6.6-5.4,12-12,12h-24c-6.6,0-12-5.4-12-12v-24c0-6.6,5.4-12,12-12h24c6.6,0,12,5.4,12,12v24ZM112,148c0,6.6-5.4,12-12,12h-24c-6.6,0-12-5.4-12-12v-24c0-6.6,5.4-12,12-12h24c6.6,0,12,5.4,12,12v24ZM353.7,272h-195.4c-8.8,0-16-7.2-16-16s7.2-16,16-16h195.4c8.8,0,16,7.2,16,16s-7.2,16-16,16ZM448,388c0,6.6-5.4,12-12,12h-24c-6.6,0-12-5.4-12-12v-24c0-6.6,5.4-12,12-12h24c6.6,0,12,5.4,12,12v24ZM448,308c0,6.6-5.4,12-12,12h-24c-6.6,0-12-5.4-12-12v-24c0-6.6,5.4-12,12-12h24c6.6,0,12,5.4,12,12v24ZM448,228c0,6.6-5.4,12-12,12h-24c-6.6,0-12-5.4-12-12v-24c0-6.6,5.4-12,12-12h24c6.6,0,12,5.4,12,12v24ZM448,148c0,6.6-5.4,12-12,12h-24c-6.6,0-12-5.4-12-12v-24c0-6.6,5.4-12,12-12h24c6.6,0,12,5.4,12,12v24Z"/>
    </g>
  </g>
</svg>